<svg width="48" height="48" viewBox="0 0 48 48" fill="none" xmlns="http://www.w3.org/2000/svg">
<path d="M9.147 46H14.5935C15.449 46 16.143 45.3555 16.143 44.5C16.143 43.6445 15.4495 43 14.5935 43H9.147C6.854 43 5 40.965 5 38.5845V16.5H42.5V22.141C42.5 22.9965 43.3945 23.6905 44.25 23.6905C45.1055 23.6905 46 22.997 46 22.141V9.447C46 5.4105 42.2065 2 38.213 2H9.147C5.1455 2 2 5.3405 2 9.447V38.5845C2 42.6735 5.1455 46 9.147 46ZM5 9.447C5 7.09 6.893 5 9.147 5H38.213C40.5265 5 42.5 7.09 42.5 9.447V13.5H5V9.447Z" fill="#FF7F38"/>
<path d="M37.2139 8H36.5944C35.7389 8 35.0449 8.8945 35.0449 9.75C35.0449 10.6055 35.7384 11.5 36.5944 11.5H37.2139C38.0694 11.5 38.7634 10.6055 38.7634 9.75C38.7634 8.8945 38.0694 8 37.2139 8Z" fill="#FF7F38"/>
<path d="M31.9463 8H31.3268C30.4713 8 29.7773 8.8945 29.7773 9.75C29.7773 10.6055 30.4708 11.5 31.3268 11.5H31.9463C32.8018 11.5 33.4958 10.6055 33.4958 9.75C33.4958 8.8945 32.8018 8 31.9463 8Z" fill="#FF7F38"/>
<path d="M26.3682 8H25.7487C24.8932 8 24.1992 8.8945 24.1992 9.75C24.1992 10.6055 24.8927 11.5 25.7487 11.5H26.3682C27.2237 11.5 27.9177 10.6055 27.9177 9.75C27.9177 8.8945 27.2237 8 26.3682 8Z" fill="#FF7F38"/>
<path d="M30.4985 23.5676C23.7045 23.5676 17.5 27.8341 15 34.1846C15 34.1846 18.2525 46.1616 30.4985 45.9006C43.4375 45.6251 46 34.1846 46 34.1846C43.5 27.8341 37.2945 23.5676 30.4985 23.5676ZM30.609 42.8021C25.292 42.8021 20.436 39.5836 18.341 34.7341C20.4355 29.8846 25.292 26.6661 30.609 26.6661C35.9275 26.6661 40.7845 29.8846 42.8795 34.7341C40.785 39.5836 35.9275 42.8021 30.609 42.8021Z" fill="#FF7F38"/>
<path d="M30.6106 28.7227C27.2956 28.7227 24.5986 31.4192 24.5986 34.7342C24.5986 38.0492 27.2956 40.7457 30.6106 40.7457C33.9256 40.7457 36.6221 38.0492 36.6221 34.7342C36.6221 31.4192 33.9256 28.7227 30.6106 28.7227ZM30.6106 37.6472C29.0041 37.6472 27.6971 36.3402 27.6971 34.7342C27.6971 33.1282 29.0041 31.8212 30.6106 31.8212C32.2171 31.8212 33.5236 33.1282 33.5236 34.7342C33.5236 36.3402 32.2171 37.6472 30.6106 37.6472Z" fill="#FF7F38"/>
</svg>
