<svg width="48" height="50" viewBox="0 0 48 50" fill="none" xmlns="http://www.w3.org/2000/svg">
<path d="M45.66 2.09557C44.9192 1.42842 44.0379 0.899655 43.0671 0.539934C42.0964 0.180212 41.0555 -0.00329986 40.005 4.49116e-05H7.99499C5.87459 4.49116e-05 3.84103 0.754367 2.34168 2.09707C0.842327 3.43977 0 5.26087 0 7.15974V35.8254C0 37.7243 0.842327 39.5454 2.34168 40.8881C3.84103 42.2308 5.87459 42.9851 7.99499 42.9851H40.005C42.1254 42.9851 44.1589 42.2308 45.6583 40.8881C47.1576 39.5454 48 37.7243 48 35.8254V7.15974C48.0037 6.21893 47.7988 5.28683 47.3971 4.4175C46.9954 3.54817 46.4049 2.75893 45.66 2.09557ZM44.805 35.812C44.805 36.952 44.2992 38.0453 43.3991 38.8515C42.4989 39.6576 41.278 40.1105 40.005 40.1105H7.99499C6.72195 40.1105 5.50106 39.6576 4.60088 38.8515C3.70071 38.0453 3.195 36.952 3.195 35.812V7.15974C3.195 6.01971 3.70071 4.92636 4.60088 4.12024C5.50106 3.31411 6.72195 2.86124 7.99499 2.86124H40.005C41.278 2.86124 42.4989 3.31411 43.3991 4.12024C44.2992 4.92636 44.805 6.01971 44.805 7.15974V35.812Z" fill="#FF7F38"/>
<path d="M24.294 26.5972C24.1186 26.5972 23.9504 26.6668 23.8265 26.7908C23.7025 26.9148 23.6328 27.083 23.6328 27.2583V30.9891C23.6328 31.1644 23.7025 31.3326 23.8265 31.4566C23.9504 31.5806 24.1186 31.6502 24.294 31.6502C24.4693 31.6502 24.6375 31.5806 24.7615 31.4566C24.8854 31.3326 24.9551 31.1644 24.9551 30.9891V27.2583C24.9551 27.083 24.8854 26.9148 24.7615 26.7908C24.6375 26.6668 24.4693 26.5972 24.294 26.5972Z" fill="#FF7F38"/>
<path d="M30.8611 27.967C30.7008 27.8972 30.5193 27.8938 30.3564 27.9576C30.1936 28.0213 30.0626 28.1469 29.9922 28.307L28.5003 31.7265C28.4305 31.8871 28.4273 32.0688 28.4914 32.2317C28.5555 32.3946 28.6817 32.5254 28.8422 32.5954C28.9255 32.6321 29.0156 32.6511 29.1066 32.6509C29.2353 32.651 29.3613 32.6135 29.469 32.543C29.5767 32.4725 29.6615 32.3722 29.713 32.2543L31.2049 28.8348C31.2742 28.6741 31.2769 28.4925 31.2125 28.3298C31.148 28.1671 31.0217 28.0366 30.8611 27.967Z" fill="#FF7F38"/>
<path d="M35.397 31.8129L32.6621 34.3509C32.54 34.4717 32.4696 34.6353 32.466 34.807C32.4623 34.9788 32.5257 35.1452 32.6426 35.2711C32.7595 35.3969 32.9208 35.4723 33.0924 35.4813C33.2639 35.4903 33.4322 35.4322 33.5617 35.3192L36.2965 32.7816C36.4209 32.6613 36.4932 32.497 36.4979 32.324C36.5026 32.151 36.4393 31.9831 36.3216 31.8562C36.204 31.7293 36.0412 31.6536 35.8684 31.6453C35.6955 31.637 35.5263 31.6967 35.397 31.8118V31.8129Z" fill="#FF7F38"/>
<path d="M18.5977 28.3083C18.5276 28.1476 18.3965 28.0214 18.2332 27.9573C18.07 27.8933 17.888 27.8967 17.7273 27.9668C17.5666 28.037 17.4403 28.1681 17.3762 28.3313C17.3122 28.4945 17.3156 28.6765 17.3858 28.8373L18.8777 32.2567C18.9291 32.3744 19.0136 32.4745 19.1209 32.5449C19.2283 32.6154 19.3538 32.6531 19.4822 32.6534C19.5732 32.6535 19.6633 32.6346 19.7466 32.5979C19.9071 32.5279 20.0332 32.3971 20.0973 32.2341C20.1615 32.0712 20.1583 31.8895 20.0885 31.7289L18.5977 28.3083Z" fill="#FF7F38"/>
<path d="M13.1903 31.8127C13.061 31.6977 12.8917 31.638 12.7189 31.6463C12.546 31.6546 12.3833 31.7303 12.2656 31.8572C12.1479 31.984 12.0847 32.152 12.0894 32.325C12.094 32.498 12.1663 32.6622 12.2907 32.7825L15.0256 35.3191C15.0893 35.3781 15.1639 35.4241 15.2453 35.4543C15.3268 35.4845 15.4133 35.4984 15.5001 35.4951C15.5869 35.4919 15.6722 35.4716 15.7511 35.4354C15.83 35.3992 15.901 35.3478 15.9601 35.2841C16.0192 35.2205 16.0651 35.1458 16.0953 35.0644C16.1255 34.983 16.1394 34.8964 16.1362 34.8096C16.1329 34.7229 16.1126 34.6376 16.0764 34.5587C16.0402 34.4797 15.9888 34.4087 15.9252 34.3496L13.1903 31.8127Z" fill="#FF7F38"/>
<mask id="path-7-inside-1_14414_111777" fill="white">
<rect x="8.80054" y="8" width="30.4" height="12.8" rx="1.6"/>
</mask>
<rect x="8.80054" y="8" width="30.4" height="12.8" rx="1.6" stroke="#FF7F38" stroke-width="4.8" mask="url(#path-7-inside-1_14414_111777)"/>
<rect x="12.7998" y="31.2002" width="23.2" height="16.8" rx="8.4" fill="#F5F6FA"/>
<path d="M24.3987 31.2002C19.3141 31.2002 14.6708 34.4091 12.7998 39.1853C12.7998 39.1853 15.2339 48.1933 24.3987 47.997C34.0821 47.7898 35.9998 39.1853 35.9998 39.1853C34.1288 34.4091 29.4847 31.2002 24.3987 31.2002ZM24.4814 45.6666C20.5022 45.6666 16.868 43.246 15.3002 39.5986C16.8677 35.9513 20.5022 33.5306 24.4814 33.5306C28.4617 33.5306 32.0966 35.9513 33.6645 39.5986C32.097 43.246 28.4617 45.6666 24.4814 45.6666Z" fill="#FF7F38"/>
<path d="M24.4002 35.2002C21.9739 35.2002 20 37.1738 20 39.6002C20 42.0265 21.9739 44.0002 24.4002 44.0002C26.8264 44.0002 28.8 42.0265 28.8 39.6002C28.8 37.1738 26.8264 35.2002 24.4002 35.2002ZM24.4002 41.7323C23.2244 41.7323 22.2678 40.7757 22.2678 39.6002C22.2678 38.4247 23.2244 37.4681 24.4002 37.4681C25.576 37.4681 26.5322 38.4247 26.5322 39.6002C26.5322 40.7757 25.576 41.7323 24.4002 41.7323Z" fill="#FF7F38"/>
</svg>
