<svg width="54" height="48" viewBox="0 0 54 48" fill="none" xmlns="http://www.w3.org/2000/svg">
<path d="M48.4995 4.74685C47.7642 4.08465 46.8894 3.5598 45.9259 3.20274C44.9623 2.84569 43.9292 2.66353 42.8864 2.66685H11.1135C9.00881 2.66685 6.99032 3.41559 5.50207 4.74835C4.01382 6.08111 3.17773 7.88871 3.17773 9.77352V38.2269C3.17773 40.1117 4.01382 41.9193 5.50207 43.252C6.99032 44.5848 9.00881 45.3335 11.1135 45.3335H42.8864C44.9911 45.3335 47.0096 44.5848 48.4978 43.252C49.9861 41.9193 50.8222 40.1117 50.8222 38.2269V9.77352C50.8259 8.83968 50.6225 7.91448 50.2238 7.05159C49.825 6.1887 49.239 5.40531 48.4995 4.74685ZM47.6508 38.2135C47.6508 39.3451 47.1489 40.4304 46.2554 41.2305C45.3619 42.0307 44.15 42.4802 42.8864 42.4802H11.1135C9.8499 42.4802 8.63805 42.0307 7.74454 41.2305C6.85103 40.4304 6.34907 39.3451 6.34907 38.2135V9.77352C6.34907 8.64193 6.85103 7.55669 7.74454 6.75653C8.63805 5.95638 9.8499 5.50685 11.1135 5.50685H42.8864C44.15 5.50685 45.3619 5.95638 46.2554 6.75653C47.1489 7.55669 47.6508 8.64193 47.6508 9.77352V38.2135Z" fill="#FF7F38"/>
<path d="M12.7064 12.6266C13.5862 12.6266 14.2995 11.9879 14.2995 11.2C14.2995 10.4121 13.5862 9.77332 12.7064 9.77332C11.8265 9.77332 11.1133 10.4121 11.1133 11.2C11.1133 11.9879 11.8265 12.6266 12.7064 12.6266Z" fill="#FF7F38"/>
<path d="M19.0648 12.6266C19.9446 12.6266 20.6579 11.9879 20.6579 11.2C20.6579 10.4121 19.9446 9.77332 19.0648 9.77332C18.1849 9.77332 17.4717 10.4121 17.4717 11.2C17.4717 11.9879 18.1849 12.6266 19.0648 12.6266Z" fill="#FF7F38"/>
<path d="M21.4471 22.5734C20.1835 22.5734 18.9716 23.0229 18.0781 23.823C17.1846 24.6232 16.6826 25.7084 16.6826 26.84V33.9467H19.854V31.1067H23.0253V33.9467H26.1966V26.84C26.1966 25.7107 25.6967 24.6275 24.8064 23.8277C23.9161 23.028 22.7081 22.5769 21.4471 22.5734ZM19.854 28.2667V26.84C19.8922 26.4872 20.0757 26.1597 20.3689 25.9214C20.662 25.6831 21.0437 25.5511 21.4396 25.5511C21.8355 25.5511 22.2172 25.6831 22.5103 25.9214C22.8035 26.1597 22.9871 26.4872 23.0253 26.84V28.2667H19.854Z" fill="#FF7F38"/>
<path d="M32.5535 22.5734H29.3822C28.9597 22.5734 28.5544 22.7237 28.2557 22.9912C27.9569 23.2588 27.7891 23.6217 27.7891 24V32.5334C27.7891 32.9117 27.9569 33.2746 28.2557 33.5422C28.5544 33.8097 28.9597 33.96 29.3822 33.96H32.5535C33.8171 33.96 35.029 33.5105 35.9225 32.7104C36.816 31.9102 37.3179 30.825 37.3179 29.6934V26.84C37.3179 25.7084 36.816 24.6232 35.9225 23.823C35.029 23.0229 33.8171 22.5734 32.5535 22.5734ZM34.1466 29.68C34.1466 29.8674 34.1054 30.0529 34.0253 30.226C33.9453 30.3991 33.8279 30.5564 33.68 30.6888C33.5321 30.8213 33.3564 30.9264 33.1632 30.9981C32.9699 31.0698 32.7627 31.1067 32.5535 31.1067H30.9753V25.4267H32.5684C32.9909 25.4267 33.3961 25.577 33.6949 25.8446C33.9937 26.1121 34.1615 26.475 34.1615 26.8534L34.1466 29.68Z" fill="#FF7F38"/>
<path d="M39.7 16.8933H14.2996C13.036 16.8933 11.8241 17.3428 10.9306 18.143C10.0371 18.9431 9.53516 20.0284 9.53516 21.16V35.3733C9.53516 36.5049 10.0371 37.5901 10.9306 38.3903C11.8241 39.1905 13.036 39.64 14.2996 39.64H39.7C40.9636 39.64 42.1755 39.1905 43.069 38.3903C43.9625 37.5901 44.4645 36.5049 44.4645 35.3733V21.16C44.4645 20.0284 43.9625 18.9431 43.069 18.143C42.1755 17.3428 40.9636 16.8933 39.7 16.8933ZM41.2931 35.3733C41.2931 35.7517 41.1253 36.1146 40.8265 36.3821C40.5278 36.6497 40.1226 36.8 39.7 36.8H14.2996C13.8771 36.8 13.4719 36.6497 13.1731 36.3821C12.8743 36.1146 12.7065 35.7517 12.7065 35.3733V21.16C12.7065 20.7816 12.8743 20.4187 13.1731 20.1512C13.4719 19.8836 13.8771 19.7333 14.2996 19.7333H39.7C40.1226 19.7333 40.5278 19.8836 40.8265 20.1512C41.1253 20.4187 41.2931 20.7816 41.2931 21.16V35.3733Z" fill="#FF7F38"/>
</svg>
