<svg width="16" height="16" viewBox="0 0 16 16" fill="none" xmlns="http://www.w3.org/2000/svg">
<g clipPath="url(#clip0_5555_11697)">
<path d="M12.436 10.3155C12.0062 10.3155 11.6588 10.6629 11.6588 11.0928V13.5341C11.6588 13.9632 11.3106 14.3114 10.8816 14.3114H2.33174C1.90269 14.3114 1.5545 13.9631 1.5545 13.5341V3.42985C1.5545 3.0008 1.90272 2.65262 2.33174 2.65262H6.84757C7.27737 2.65262 7.6248 2.30519 7.6248 1.87538C7.6248 1.44558 7.27737 1.09814 6.84757 1.09814H2.33174C1.04617 1.09808 0 2.14428 0 3.42985V13.5341C0 14.8197 1.04617 15.8659 2.33174 15.8659H10.8815C12.1671 15.8659 13.2132 14.8205 13.2132 13.5341V11.0928C13.2133 10.6629 12.8658 10.3155 12.436 10.3155Z" fill="#475467"/>
<path d="M15.1304 0.999305C14.5661 0.435034 13.8292 0.150539 13.087 0.135008C12.3058 0.117914 11.52 0.400816 10.9293 0.992305L5.66732 6.25431C4.8994 7.02536 4.47656 8.04821 4.47656 9.13479V10.8758C4.47656 11.3056 4.82399 11.6531 5.2538 11.6531H6.99483C8.08144 11.6531 9.10429 11.2302 9.87609 10.4615L15.1311 5.20651C16.2892 4.04769 16.2892 2.15897 15.1304 0.999305ZM8.77789 9.36178C8.30143 9.83668 7.66719 10.0986 6.99489 10.0986H6.03107V9.13482C6.03107 8.46249 6.293 7.82825 6.76712 7.35257L10.236 3.88369L12.246 5.89366L8.77789 9.36178ZM14.0313 4.10831L13.345 4.79465L11.335 2.78468L12.0213 2.09838C12.5763 1.54342 13.4779 1.54498 14.0313 2.09838C14.5847 2.65253 14.5847 3.55414 14.0313 4.10831Z" fill="#475467"/>
</g>
<defs>
<clipPath id="clip0_5555_11697">
<rect width="16" height="16" fill="white"/>
</clipPath>
</defs>
</svg>
