<svg width="24" height="24" viewBox="0 0 24 24" fill="none" xmlns="http://www.w3.org/2000/svg">
<path d="M18.8189 16.7143H3.68778C3.50537 16.7143 3.33043 16.634 3.20145 16.4912C3.07246 16.3483 3 16.1545 3 15.9524V3.76191C3 3.55984 3.07246 3.36604 3.20145 3.22316C3.33043 3.08027 3.50537 3 3.68778 3H18.8189C19.0013 3 19.1763 3.08027 19.3053 3.22316C19.4342 3.36604 19.5067 3.55984 19.5067 3.76191V15.9524C19.5067 16.1545 19.4342 16.3483 19.3053 16.4912C19.1763 16.634 19.0013 16.7143 18.8189 16.7143ZM4.37556 15.1905H18.1311V4.52381H4.37556V15.1905Z" fill="#475467"/>
<path d="M15.1892 19.0004H9.09394C8.89187 19.0004 8.69807 18.9201 8.55519 18.7772C8.4123 18.6343 8.33203 18.4405 8.33203 18.2385C8.33203 18.0364 8.4123 17.8426 8.55519 17.6997C8.69807 17.5568 8.89187 17.4766 9.09394 17.4766H15.1892C15.3913 17.4766 15.5851 17.5568 15.7279 17.6997C15.8708 17.8426 15.9511 18.0364 15.9511 18.2385C15.9511 18.4405 15.8708 18.6343 15.7279 18.7772C15.5851 18.9201 15.3913 19.0004 15.1892 19.0004Z" fill="#475467"/>
<path d="M12.1447 13.6668C11.9426 13.6668 11.7489 13.5866 11.606 13.4437C11.4631 13.3008 11.3828 13.107 11.3828 12.9049V9.0954C11.3828 8.89333 11.4631 8.69954 11.606 8.55665C11.7489 8.41377 11.9426 8.3335 12.1447 8.3335C12.3468 8.3335 12.5406 8.41377 12.6835 8.55665C12.8264 8.69954 12.9066 8.89333 12.9066 9.0954V12.9049C12.9066 13.107 12.8264 13.3008 12.6835 13.4437C12.5406 13.5866 12.3468 13.6668 12.1447 13.6668Z" fill="#475467"/>
<path d="M8.46308 13.667C8.26101 13.667 8.06721 13.5867 7.92433 13.4438C7.78144 13.3009 7.70117 13.1071 7.70117 12.905V10.6193C7.70117 10.4173 7.78144 10.2235 7.92433 10.0806C8.06721 9.93769 8.26101 9.85742 8.46308 9.85742C8.66515 9.85742 8.85894 9.93769 9.00183 10.0806C9.14471 10.2235 9.22499 10.4173 9.22499 10.6193V12.905C9.22499 13.1071 9.14471 13.3009 9.00183 13.4438C8.85894 13.5867 8.66515 13.667 8.46308 13.667Z" fill="#475467"/>
<path d="M15.8264 13.6664C15.6243 13.6664 15.4305 13.5862 15.2876 13.4433C15.1447 13.3004 15.0645 13.1066 15.0645 12.9045V6.80927C15.0645 6.6072 15.1447 6.41341 15.2876 6.27052C15.4305 6.12764 15.6243 6.04736 15.8264 6.04736C16.0284 6.04736 16.2222 6.12764 16.3651 6.27052C16.508 6.41341 16.5883 6.6072 16.5883 6.80927V12.9045C16.5883 13.1066 16.508 13.3004 16.3651 13.4433C16.2222 13.5862 16.0284 13.6664 15.8264 13.6664Z" fill="#475467"/>
</svg>
