<svg width="24" height="24" viewBox="0 0 24 24" fill="none" xmlns="http://www.w3.org/2000/svg">
<path d="M11.3677 6.95428C11.5263 7.13818 11.7571 7.24392 12 7.24392C12.2429 7.24392 12.4737 7.13818 12.6323 6.95428C13.1402 6.36539 13.985 5.72392 15.2889 5.72392C17.5235 5.72392 19.165 7.86668 19.165 10.0089C19.165 11.0385 18.7601 12.0707 18.0793 13.0732C17.3992 14.0746 16.4748 14.9994 15.5191 15.7949C14.5667 16.5878 13.6061 17.2332 12.8746 17.6802C12.5142 17.9004 12.2129 18.0703 12 18.1841C11.7871 18.0703 11.4858 17.9004 11.1254 17.6802C10.3939 17.2332 9.43333 16.5878 8.48087 15.7949C7.52516 14.9994 6.60085 14.0746 5.92075 13.0732C5.23987 12.0707 4.835 11.0385 4.835 10.0089C4.835 7.86668 6.47649 5.72392 8.71111 5.72392C10.015 5.72392 10.8598 6.36539 11.3677 6.95428Z" stroke="#475467" stroke-width="1.67" stroke-linecap="round" stroke-linejoin="round"/>
</svg>
