<?xml version="1.0"?>
<svg width="24" height="24" xmlns="http://www.w3.org/2000/svg" xmlns:svg="http://www.w3.org/2000/svg">
 <g class="layer">
  <title>Layer 1</title>
  <path d="m15.85,20.33c0,0.22 -0.09,0.44 -0.25,0.6c-0.16,0.17 -0.38,0.26 -0.61,0.26l-8.12,0c-0.76,0 -1.49,-0.31 -2.03,-0.84c-0.54,-0.54 -0.84,-1.27 -0.84,-2.03l0,-12.64c0,-0.76 0.3,-1.49 0.84,-2.03c0.54,-0.53 1.27,-0.84 2.03,-0.84l8.12,0c0.23,0 0.45,0.09 0.61,0.26c0.16,0.16 0.25,0.38 0.25,0.6c0,0.23 -0.09,0.45 -0.25,0.61c-0.16,0.16 -0.38,0.26 -0.61,0.26l-8.12,0c-0.3,0 -0.6,0.12 -0.81,0.33c-0.22,0.22 -0.34,0.51 -0.34,0.81l0,12.64c0,0.3 0.12,0.59 0.34,0.81c0.21,0.21 0.51,0.33 0.81,0.33l8.12,0c0.23,0 0.45,0.1 0.61,0.26c0.16,0.16 0.25,0.38 0.25,0.61zm3.9,-8.94l-4.1,-4.09c-0.07,-0.08 -0.17,-0.15 -0.27,-0.19c-0.11,-0.05 -0.22,-0.07 -0.34,-0.07c-0.11,0 -0.22,0.02 -0.33,0.06c-0.1,0.05 -0.2,0.11 -0.28,0.19c-0.08,0.08 -0.14,0.18 -0.19,0.28c-0.04,0.11 -0.06,0.22 -0.06,0.34c0,0.11 0.02,0.22 0.07,0.33c0.04,0.1 0.11,0.2 0.19,0.28l2.62,2.62l-6.78,0c-0.23,0 -0.45,0.09 -0.61,0.25c-0.16,0.16 -0.25,0.38 -0.25,0.61c0,0.23 0.09,0.45 0.25,0.61c0.16,0.16 0.38,0.25 0.61,0.25l6.78,0l-2.62,2.62c-0.08,0.08 -0.15,0.18 -0.19,0.28c-0.04,0.11 -0.07,0.22 -0.07,0.33c0,0.12 0.02,0.23 0.07,0.33c0.04,0.11 0.1,0.2 0.19,0.28c0.08,0.08 0.17,0.15 0.27,0.19c0.11,0.04 0.22,0.07 0.34,0.07c0.11,0 0.22,-0.03 0.33,-0.07c0.1,-0.04 0.19,-0.11 0.27,-0.19l4.1,-4.09c0.16,-0.16 0.25,-0.38 0.25,-0.61c0,-0.23 -0.09,-0.45 -0.25,-0.61z" fill="#ff7f38" id="svg_1"/>
 </g>
</svg>