<svg width="24" height="24" viewBox="0 0 24 24" fill="none" xmlns="http://www.w3.org/2000/svg">
<g clipPath="url(#clip0_5083_2058)">
<path d="M16.436 14.3155C16.0062 14.3155 15.6588 14.6629 15.6588 15.0928V17.5341C15.6588 17.9632 15.3106 18.3114 14.8816 18.3114H6.33174C5.90269 18.3114 5.5545 17.9631 5.5545 17.5341V7.42985C5.5545 7.0008 5.90272 6.65262 6.33174 6.65262H10.8476C11.2774 6.65262 11.6248 6.30519 11.6248 5.87538C11.6248 5.44558 11.2774 5.09814 10.8476 5.09814H6.33174C5.04617 5.09808 4 6.14428 4 7.42985V17.5341C4 18.8197 5.04617 19.8659 6.33174 19.8659H14.8815C16.1671 19.8659 17.2132 18.8205 17.2132 17.5341V15.0928C17.2133 14.6629 16.8658 14.3155 16.436 14.3155Z" fill="#475467"/>
<path d="M19.1304 4.99931C18.5661 4.43503 17.8292 4.15054 17.087 4.13501C16.3058 4.11791 15.52 4.40082 14.9293 4.99231L9.66732 10.2543C8.8994 11.0254 8.47656 12.0482 8.47656 13.1348V14.8758C8.47656 15.3056 8.82399 15.6531 9.2538 15.6531H10.9948C12.0814 15.6531 13.1043 15.2302 13.8761 14.4615L19.1311 9.20651C20.2892 8.04769 20.2892 6.15897 19.1304 4.99931ZM12.7779 13.3618C12.3014 13.8367 11.6672 14.0986 10.9949 14.0986H10.0311V13.1348C10.0311 12.4625 10.293 11.8282 10.7671 11.3526L14.236 7.88369L16.246 9.89366L12.7779 13.3618ZM18.0313 8.10831L17.345 8.79465L15.335 6.78468L16.0213 6.09838C16.5763 5.54342 17.4779 5.54498 18.0313 6.09838C18.5847 6.65253 18.5847 7.55414 18.0313 8.10831Z" fill="#475467"/>
</g>
<defs>
<clipPath id="clip0_5083_2058">
<rect width="16" height="16" fill="white" transform="translate(4 4)"/>
</clipPath>
</defs>
</svg>
