<svg width="24" height="24" viewBox="0 0 24 24" fill="none" xmlns="http://www.w3.org/2000/svg">
<path fill-rule="evenodd" clip-rule="evenodd" d="M12.0014 7.99947C10.8968 7.99947 10.0014 8.8949 10.0014 9.99947C10.0014 11.104 10.8968 11.9995 12.0014 11.9995C13.106 11.9995 14.0014 11.104 14.0014 9.99947C14.0014 8.8949 13.106 7.99947 12.0014 7.99947ZM8.54688 9.99947C8.54688 8.09158 10.0935 6.54492 12.0014 6.54492C13.9093 6.54492 15.456 8.09158 15.456 9.99947C15.456 11.9074 13.9093 13.454 12.0014 13.454C10.0935 13.454 8.54688 11.9074 8.54688 9.99947Z" fill="#475467"/>
<path fill-rule="evenodd" clip-rule="evenodd" d="M7.27193 16.7929C7.2387 17.1637 6.92708 17.4544 6.54759 17.4544C6.14593 17.4544 5.82031 17.1288 5.82031 16.7271C5.82031 16.446 5.92696 16.2026 6.03929 16.0203C6.15553 15.8317 6.30981 15.6567 6.4795 15.498C6.8194 15.1802 7.28162 14.8719 7.81994 14.6027C8.8992 14.0631 10.3735 13.6362 12.0021 13.6362C13.6307 13.6362 15.105 14.0631 16.1843 14.6027C16.7226 14.8719 17.1849 15.1802 17.5248 15.498C17.6944 15.6567 17.8488 15.8317 17.965 16.0203C18.0773 16.2026 18.184 16.446 18.184 16.7271C18.184 17.1288 17.8584 17.4544 17.4567 17.4544C17.0772 17.4544 16.7656 17.1637 16.7323 16.7929C16.7307 16.7901 16.7289 16.787 16.7267 16.7836C16.6977 16.7364 16.6376 16.6599 16.5313 16.5604C16.3192 16.362 15.9826 16.1281 15.5338 15.9037C14.6389 15.4562 13.386 15.0908 12.0021 15.0908C10.6183 15.0908 9.36532 15.4562 8.47043 15.9037C8.02167 16.1281 7.6851 16.362 7.47297 16.5604C7.36663 16.6599 7.3066 16.7364 7.27751 16.7836C7.2754 16.787 7.27354 16.7901 7.27193 16.7929Z" fill="#475467"/>
<path fill-rule="evenodd" clip-rule="evenodd" d="M12 5.45455C8.38505 5.45455 5.45455 8.38505 5.45455 12C5.45455 15.615 8.38505 18.5455 12 18.5455C15.615 18.5455 18.5455 15.615 18.5455 12C18.5455 8.38505 15.615 5.45455 12 5.45455ZM4 12C4 7.58172 7.58172 4 12 4C16.4183 4 20 7.58172 20 12C20 16.4183 16.4183 20 12 20C7.58172 20 4 16.4183 4 12Z" fill="#475467"/>
</svg>
